<svg role="img" viewBox="0 0 24 24" xmlns="http://www.w3.org/2000/svg">
  <path fill="" d="M0 2.182C0 0.978 0.978 0 2.182 0h19.636C23.022 0 24 0.978 24 2.182v19.636C24 23.022 23.022 24 21.818 24H2.182C0.978 24 0 23.022 0 21.818V2.182z"/>
  <path fill="" d="M9.06 21.818H6.545V9.727H3.818v12.091H1.273V6.545h2.545v3.182h2.515V6.545h2.697L9.06 9.727h2.605v12.091h-2.605zM19.394 7.455c0-.78-.635-1.414-1.415-1.414-.78 0-1.414.634-1.414 1.414s.634 1.414 1.414 1.414c.78 0 1.415-.634 1.415-1.414zM24 7.455c0 1.063-.869 1.933-1.932 1.933-1.063 0-1.932-.87-1.932-1.933s.869-1.933 1.932-1.933c1.063 0 1.932.87 1.932 1.933zM24 0c-2.364 0-2.727.021-3.67.081-.888.06-1.321.257-1.625.437-.409.199-.702.463-1.015.875-.312.411-.652 1.05-.854 1.893-.068.296-.08.65-.081 1.595-.002 1.838-.017 2.392-.074 3.05-.088 1.352-.224 2.113-.438 2.646-.159.35-.373.64-.68.847-.312.208-.728.359-1.198.468-.398.091-1.117.163-3.022.163h-.29c-1.905 0-2.624-.072-3.022-.163-.47-.109-.886-.26-1.198-.468-.307-.207-.521-.497-.68-.847-.214-.533-.35-1.294-.438-2.646-.056-.658-.072-1.212-.074-3.05-.001-.945-.013-1.299-.081-1.595-.202-.843-.542-1.482-.854-1.893-.313-.412-.606-.676-1.015-.875-.304-.18-.737-.377-1.625-.437C2.727.021 2.364 0 0 0h24z"/>
</svg>
